<svg width="240" height="52" viewBox="0 0 240 52" fill="none" xmlns="http://www.w3.org/2000/svg">
<path d="M37.6815 47.5452C31.7782 53.4485 22.158 53.4485 16.2912 47.5452L5.43204 36.6861C-0.471258 30.7828 -0.471258 21.1626 5.3956 15.2957L16.2912 4.40014C22.158 -1.46671 31.7782 -1.46671 37.6815 4.40014L48.5407 15.2957C54.4439 21.199 54.4439 30.8192 48.5407 36.6861L37.6815 47.5452Z" fill="#DA291C"/>
<path d="M20.5182 41.9699C19.6437 41.9699 18.9513 41.2775 18.9149 40.4394C18.9149 40.0021 19.0606 39.6012 19.3521 39.2733C19.6437 38.9453 20.0445 38.7631 20.4818 38.7631C21.3563 38.7267 22.1216 39.419 22.158 40.2936C22.1945 41.1682 21.5021 41.9334 20.6275 41.9699C20.5911 41.9699 20.5547 41.9699 20.5182 41.9699Z" fill="white"/>
<path d="M26.3851 12.2712C25.5105 12.2712 24.7817 12.5627 24.2351 13.1093C22.9962 14.3483 22.3402 16.8626 22.4131 20.2151C22.486 24.3693 23.4699 32.4954 26.7495 36.7225C27.2961 37.4149 27.8427 37.9615 28.4257 38.3259C29.0088 38.6903 29.6282 39.0911 30.6486 39.0911C30.9037 39.0911 31.2316 39.0547 31.5231 39.0182C33.3816 38.5809 35.7502 36.4674 37.4993 33.698C37.7544 33.2607 38.2281 33.0056 38.7383 33.0056C38.9933 33.0056 39.2849 33.0785 39.5035 33.2242C39.8315 33.4429 40.0501 33.7344 40.1594 34.1352C40.2323 34.4996 40.1959 34.9005 39.9772 35.2284C37.7544 38.7267 34.8756 41.2046 32.1791 41.8241C32.1791 41.8241 32.1426 41.8241 32.1062 41.8241C31.6325 41.897 31.1223 41.9699 30.685 41.9699C28.9723 41.9699 27.7334 41.3139 26.8952 40.7309C26.0207 40.1479 25.2554 39.4191 24.5266 38.4716C19.9352 32.5683 19.6072 21.4905 19.6072 20.2516C19.5708 17.2999 19.9716 13.328 22.2674 11.0322C23.397 9.90259 24.7817 9.35599 26.458 9.35599H26.713C28.3528 9.35599 29.774 9.90259 30.9037 11.0322C33.1994 13.328 33.6367 17.2999 33.5638 20.2516C33.5273 23.3125 32.9443 29.2523 29.774 34.609C29.5189 35.0462 29.0452 35.3013 28.535 35.3013C28.28 35.3013 28.0249 35.2285 27.8062 35.0827C27.1139 34.6819 26.8952 33.7708 27.2961 33.1149C29.5189 29.398 30.6121 25.2803 30.685 20.2151C30.7579 16.8626 30.102 14.3118 28.863 13.1093C28.28 12.5263 27.5876 12.2712 26.713 12.2712H26.3851Z" fill="white"/>
<path d="M108.703 14.7856V37.1233H112.056V14.7856H108.703ZM99.156 22.8388V24.843H103.347V29.5438C102.545 29.8717 101.816 30.0539 100.723 30.0539H95.9857C95.5484 30.0539 95.184 29.6895 95.184 29.2523V18.1016H101.306V16.4982H91.7222V30.0539C91.7222 30.9285 92.451 31.6573 93.3255 31.6573H100.759C101.889 31.6573 102.8 31.4751 103.383 31.0743V37.1233H106.736V14.7856H103.383V22.8388H99.156Z" fill="white"/>
<path d="M78.6038 26.5557V24.3693H85.9647V22.7659H72.1174C71.6801 22.7659 71.3157 22.4015 71.3157 21.9643V20.5431H85.6731V15.15H67.8539V16.7533H82.2113V18.9397H67.8539V22.7659C67.8539 23.6405 68.5827 24.3693 69.4573 24.3693H75.1419V26.5557H65.9955V28.1591H87.8595V26.5557H78.6038ZM78.6766 29.2158H74.814C73.7937 33.4793 68.7649 35.5928 66.9065 35.8844L67.8539 37.3055C69.7488 37.0869 74.0487 35.52 76.7453 32.6048C79.4419 35.5564 83.7418 37.0869 85.6367 37.3055L86.5841 35.8844C84.7621 35.5928 79.7334 33.4793 78.6766 29.2158Z" fill="white"/>
<path d="M123.134 15.3686C124.263 15.3686 125.247 15.5508 126.122 15.9516C126.96 16.3525 127.689 16.8991 128.235 17.555C128.782 18.2109 129.219 19.0126 129.474 19.96C129.766 20.871 129.875 21.8549 129.875 22.8753C129.875 23.8956 129.729 24.843 129.474 25.754C129.183 26.665 128.782 27.4303 128.235 28.1226C127.689 28.815 126.96 29.3616 126.122 29.7624C125.283 30.1633 124.263 30.3455 123.134 30.3455C121.967 30.3455 120.984 30.1633 120.145 29.7624C119.307 29.3616 118.579 28.815 118.032 28.1226C117.485 27.4303 117.048 26.665 116.757 25.754C116.465 24.843 116.319 23.8956 116.319 22.8753C116.319 21.8549 116.465 20.9075 116.757 19.96C117.048 19.049 117.449 18.2474 118.032 17.555C118.579 16.8626 119.307 16.3525 120.145 15.9516C120.984 15.5508 121.967 15.3686 123.134 15.3686ZM123.134 28.6692C123.644 28.6692 124.117 28.5235 124.518 28.1955C124.919 27.904 125.284 27.4667 125.611 26.9565C125.939 26.4464 126.158 25.8269 126.304 25.0981C126.45 24.4057 126.559 23.6405 126.559 22.8388C126.559 22.0371 126.486 21.2719 126.304 20.5431C126.158 19.8143 125.903 19.1948 125.611 18.6846C125.32 18.1745 124.956 17.7372 124.518 17.4457C124.117 17.1542 123.644 17.0084 123.134 17.0084C122.587 17.0084 122.113 17.1542 121.712 17.4457C121.312 17.7372 120.911 18.1745 120.619 18.6846C120.328 19.1948 120.073 19.8143 119.927 20.5431C119.745 21.2719 119.672 22.0371 119.672 22.8388C119.672 23.6405 119.745 24.4057 119.927 25.0981C120.109 25.7905 120.328 26.4099 120.619 26.9565C120.911 27.5031 121.275 27.904 121.712 28.1955C122.113 28.5235 122.587 28.6692 123.134 28.6692ZM133.446 14.7856H136.799V37.342H133.446V14.7856Z" fill="white"/>
<path d="M141.208 32.8234V31.1836H150.646V26.4464H145.617C145.07 26.4464 144.67 26.3006 144.378 25.9727C144.087 25.6811 143.941 25.2439 143.941 24.7701V15.4415H147.257V24.0778C147.257 24.2964 147.293 24.4786 147.366 24.5879C147.439 24.7337 147.621 24.7701 147.876 24.7701H160.849V26.4099H154.108V31.1472H163.874V32.787H141.208V32.8234Z" fill="white"/>
<path d="M168.684 30.8921C167.991 30.8921 167.481 30.7099 167.117 30.3455C166.752 29.9811 166.607 29.4709 166.607 28.8879V15.5872H169.923V20.871H173.239V15.5872H176.555V21.7092H178.96V14.7856H182.203V37.1598H178.96V23.3854H176.555V30.8921H168.684ZM169.959 28.6328C169.959 28.815 169.995 28.9607 170.068 29.0701C170.141 29.1794 170.323 29.2158 170.542 29.2158H173.275V22.5473H169.959V28.6328ZM184.207 14.7856H187.45V37.1598H184.207V14.7856Z" fill="white"/>
<path d="M198.127 15.3686C199.257 15.3686 200.241 15.5508 201.115 15.9516C201.953 16.3525 202.682 16.8991 203.229 17.555C203.775 18.2474 204.213 19.0126 204.468 19.96C204.759 20.871 204.869 21.8549 204.869 22.8753C204.869 23.8956 204.723 24.843 204.468 25.754C204.176 26.665 203.775 27.4303 203.229 28.1226C202.682 28.815 201.953 29.3616 201.115 29.7624C200.277 30.1633 199.257 30.3455 198.127 30.3455C196.961 30.3455 195.977 30.1633 195.139 29.7624C194.301 29.3616 193.572 28.815 193.026 28.1226C192.479 27.4303 192.042 26.665 191.75 25.754C191.459 24.843 191.313 23.8956 191.313 22.8753C191.313 21.8549 191.459 20.9075 191.75 19.96C192.042 19.049 192.443 18.2474 193.026 17.555C193.572 16.8626 194.301 16.3525 195.139 15.9516C195.977 15.5508 196.961 15.3686 198.127 15.3686ZM198.127 28.6692C198.637 28.6692 199.111 28.5235 199.512 28.1955C199.913 27.904 200.277 27.4667 200.605 26.9565C200.933 26.4464 201.152 25.8269 201.298 25.0981C201.443 24.4057 201.553 23.6405 201.553 22.8388C201.553 22.0371 201.48 21.2719 201.298 20.5431C201.152 19.8143 200.897 19.1948 200.605 18.6846C200.314 18.1745 199.949 17.7372 199.512 17.4457C199.111 17.1542 198.637 17.0084 198.127 17.0084C197.581 17.0084 197.107 17.1542 196.706 17.4457C196.269 17.7372 195.904 18.1745 195.613 18.6846C195.321 19.1948 195.066 19.8143 194.921 20.5431C194.738 21.2719 194.665 22.0371 194.665 22.8388C194.665 23.6405 194.738 24.4057 194.921 25.0981C195.103 25.7905 195.321 26.4099 195.613 26.9565C195.904 27.5031 196.269 27.904 196.706 28.1955C197.107 28.5235 197.581 28.6692 198.127 28.6692ZM208.44 14.7856H211.792V37.342H208.44V14.7856Z" fill="white"/>
<path d="M238.794 31.4387V33.0785H216.165V31.4387H238.794ZM235.733 15.4779V17.1177H222.178V20.616H235.733V22.2193H222.178V25.0252C222.178 25.2803 222.251 25.4625 222.36 25.6083C222.469 25.754 222.688 25.8269 222.979 25.8269H236.098V27.4303H220.538C219.991 27.4303 219.59 27.2845 219.299 26.993C219.007 26.7015 218.862 26.3006 218.862 25.8633V15.4779H235.733Z" fill="white"/>
</svg>
